# xmcd
#
# Track frame offsets:
#	150
#	16435
#	31915
#	50135
#	67062
#	79925
#	100742
#	113460
#	130517
#	144732
#	164277
#	182502
#	200832
#	219495
#	233970
#	250070
#	263390
#
# Disc length: 3769
#
# Revision: 3
# Processed by: cddbd v1.5.1PL0 Copyright (c) Steve Scherf et al.
# Submitted via: audiograbber 1.83.01
# Normalized: r2:DSETVAR1
#
DISCID=e90eb711
DTITLE=Various Artist - Country's Best Untamed and True 3
DYEAR=1996
DGENRE=Country
TTITLE0=George Strait - Adalida
TTITLE1=David Lee Murphy - Everytime I Get Around
TTITLE2=Mavericks, The - Blue Moon
TTITLE3=Rachel Matkin - Living Beyond Our Dreams
TTITLE4=Clay Walker - Live Until I Die
TTITLE5=Travis Tritt - Sometimes She Forgets
TTITLE6=Trisha Yearwood - XXX's and OOO's (An American Girl)
TTITLE7=Vince Gill - You Better Think Twice
TTITLE8=Paul Jefferson - Check Please
TTITLE9=Reba McEntire - Does He Love You
TTITLE10=Rhett Akins - That Ain't My Truck
TTITLE11=Lawnie Wallace - Thought I Was Dreaming
TTITLE12=Tracy Byrd - The Keeper Of The Stars
TTITLE13=Patricia Conroy - You Can't Resist It
TTITLE14=Mark Chesnutt - Trouble
TTITLE15=Marty Stuart - If I Ain't Got You
TTITLE16=Jason McCoy - All The Way
EXTD=
EXTT0=
EXTT1=
EXTT2=
EXTT3=
EXTT4=
EXTT5=
EXTT6=
EXTT7=
EXTT8=
EXTT9=
EXTT10=
EXTT11=
EXTT12=
EXTT13=
EXTT14=
EXTT15=
EXTT16=
PLAYORDER=
